<?xml version="1.0" encoding="UTF-8" standalone="no"?>
<!-- Created with Inkscape (http://www.inkscape.org/) -->

<svg
   width="267.60828mm"
   height="160.0296mm"
   viewBox="0 0 267.60828 160.0296"
   version="1.1"
   id="svg5"
   inkscape:version="1.1.2 (0a00cf5339, 2022-02-04)"
   sodipodi:docname="monkeys.svg"
   xmlns:inkscape="http://www.inkscape.org/namespaces/inkscape"
   xmlns:sodipodi="http://sodipodi.sourceforge.net/DTD/sodipodi-0.dtd"
   xmlns="http://www.w3.org/2000/svg"
   xmlns:svg="http://www.w3.org/2000/svg">
  <sodipodi:namedview
     id="namedview7"
     pagecolor="#ffffff"
     bordercolor="#666666"
     borderopacity="1.0"
     inkscape:pageshadow="2"
     inkscape:pageopacity="0.0"
     inkscape:pagecheckerboard="0"
     inkscape:document-units="mm"
     showgrid="false"
     inkscape:zoom="0.67793911"
     inkscape:cx="689.58995"
     inkscape:cy="353.27656"
     inkscape:window-width="1920"
     inkscape:window-height="1032"
     inkscape:window-x="3840"
     inkscape:window-y="20"
     inkscape:window-maximized="1"
     inkscape:current-layer="layer1" />
  <defs
     id="defs2">
    <clipPath
       clipPathUnits="userSpaceOnUse"
       id="clipPath854">
      <path
         d="M 0,0 H 793.6 V 595.2 H 0 Z"
         clip-rule="evenodd"
         id="path852" />
    </clipPath>
  </defs>
  <g
     inkscape:label="Layer 1"
     inkscape:groupmode="layer"
     id="layer1"
     transform="translate(77.090252,41.869121)">
    <g
       id="g858"
       transform="matrix(0.35277777,0,0,-0.35277777,-79.099171,126.84212)" />
    <g
       id="g860"
       transform="matrix(0.35277777,0,0,-0.35277777,-79.099171,126.84212)" />
    <g
       id="g874"
       transform="matrix(0.35277777,0,0,-0.35277777,-79.099171,126.84212)">
      <path
         d="M 421.8,377.2 H 466"
         style="fill:none;stroke:#000000;stroke-width:5.9996;stroke-linecap:round;stroke-linejoin:round;stroke-miterlimit:10;stroke-dasharray:none;stroke-opacity:1"
         id="path876" />
    </g>
    <g
       id="g878"
       transform="matrix(0.35277777,0,0,-0.35277777,-79.099171,126.84212)">
      <path
         d="m 466,355.4 v 43.5"
         style="fill:none;stroke:#000000;stroke-width:5.9996;stroke-linecap:round;stroke-linejoin:round;stroke-miterlimit:10;stroke-dasharray:none;stroke-opacity:1"
         id="path880" />
    </g>
    <g
       id="g882"
       transform="matrix(0.35277777,0,0,-0.35277777,-79.099171,126.84212)">
      <path
         d="m 466,355.4 h 44.2"
         style="fill:none;stroke:#000000;stroke-width:5.9996;stroke-linecap:round;stroke-linejoin:round;stroke-miterlimit:10;stroke-dasharray:none;stroke-opacity:1"
         id="path884" />
    </g>
    <g
       id="g886"
       transform="matrix(0.35277777,0,0,-0.35277777,-79.099171,126.84212)">
      <path
         d="m 466,399.6 h 44.2"
         style="fill:none;stroke:#000000;stroke-width:5.9996;stroke-linecap:round;stroke-linejoin:round;stroke-miterlimit:10;stroke-dasharray:none;stroke-opacity:1"
         id="path888" />
    </g>
    <g
       id="g890"
       transform="matrix(0.35277777,0,0,-0.35277777,-79.099171,126.84212)">
      <path
         d="M 421.8,377.2 H 466"
         style="fill:none;stroke:#000000;stroke-width:5.9996;stroke-linecap:round;stroke-linejoin:round;stroke-miterlimit:10;stroke-dasharray:none;stroke-opacity:1"
         id="path892" />
    </g>
    <g
       id="g894"
       transform="matrix(0.35277777,0,0,-0.35277777,-79.099171,126.84212)">
      <path
         d="m 466,355.4 v 43.5"
         style="fill:none;stroke:#000000;stroke-width:5.9996;stroke-linecap:round;stroke-linejoin:round;stroke-miterlimit:10;stroke-dasharray:none;stroke-opacity:1"
         id="path896" />
    </g>
    <g
       id="g898"
       transform="matrix(0.35277777,0,0,-0.35277777,-79.099171,126.84212)">
      <path
         d="m 421.8,305.1 h 88.4"
         style="fill:none;stroke:#000000;stroke-width:5.9996;stroke-linecap:round;stroke-linejoin:round;stroke-miterlimit:10;stroke-dasharray:none;stroke-opacity:1"
         id="path900" />
    </g>
    <g
       id="g902"
       transform="matrix(0.35277777,0,0,-0.35277777,-79.099171,126.84212)">
      <path
         d="m 377.6,341 h 44.2"
         style="fill:none;stroke:#000000;stroke-width:5.9996;stroke-linecap:round;stroke-linejoin:round;stroke-miterlimit:10;stroke-dasharray:none;stroke-opacity:1"
         id="path904" />
    </g>
    <g
       id="g906"
       transform="matrix(0.35277777,0,0,-0.35277777,-79.099171,126.84212)">
      <path
         d="m 421.8,305.1 v 71.8"
         style="fill:none;stroke:#000000;stroke-width:5.9996;stroke-linecap:round;stroke-linejoin:round;stroke-miterlimit:10;stroke-dasharray:none;stroke-opacity:1"
         id="path908" />
    </g>
    <g
       id="g910"
       transform="matrix(0.35277777,0,0,-0.35277777,-79.099171,126.84212)">
      <path
         d="M 377.6,256 H 510.2"
         style="fill:none;stroke:#000000;stroke-width:5.9996;stroke-linecap:round;stroke-linejoin:round;stroke-miterlimit:10;stroke-dasharray:none;stroke-opacity:1"
         id="path912" />
    </g>
    <g
       id="g914"
       transform="matrix(0.35277777,0,0,-0.35277777,-79.099171,126.84212)">
      <path
         d="m 333.4,298.5 h 44.2"
         style="fill:none;stroke:#000000;stroke-width:5.9996;stroke-linecap:round;stroke-linejoin:round;stroke-miterlimit:10;stroke-dasharray:none;stroke-opacity:1"
         id="path916" />
    </g>
    <g
       id="g918"
       transform="matrix(0.35277777,0,0,-0.35277777,-79.099171,126.84212)">
      <path
         d="m 377.6,256 v 85"
         style="fill:none;stroke:#000000;stroke-width:5.9996;stroke-linecap:round;stroke-linejoin:round;stroke-miterlimit:10;stroke-dasharray:none;stroke-opacity:1"
         id="path920" />
    </g>
    <g
       id="g922"
       transform="matrix(0.35277777,0,0,-0.35277777,-79.099171,126.84212)">
      <path
         d="M 333.4,206.9 H 510.2"
         style="fill:none;stroke:#000000;stroke-width:5.9996;stroke-linecap:round;stroke-linejoin:round;stroke-miterlimit:10;stroke-dasharray:none;stroke-opacity:1"
         id="path924" />
    </g>
    <g
       id="g926"
       transform="matrix(0.35277777,0,0,-0.35277777,-79.099171,126.84212)">
      <path
         d="m 289.1,252.2 h 44.3"
         style="fill:none;stroke:#000000;stroke-width:5.9996;stroke-linecap:round;stroke-linejoin:round;stroke-miterlimit:10;stroke-dasharray:none;stroke-opacity:1"
         id="path928" />
    </g>
    <g
       id="g930"
       transform="matrix(0.35277777,0,0,-0.35277777,-79.099171,126.84212)">
      <path
         d="m 333.4,206.9 v 90.7"
         style="fill:none;stroke:#000000;stroke-width:5.9996;stroke-linecap:round;stroke-linejoin:round;stroke-miterlimit:10;stroke-dasharray:none;stroke-opacity:1"
         id="path932" />
    </g>
    <g
       id="g934"
       transform="matrix(0.35277777,0,0,-0.35277777,-79.099171,126.84212)">
      <text
         transform="matrix(1,0,0,-1,525.8,392.4)"
         style="font-variant:normal;font-weight:bold;font-size:24px;font-family:'Liberation Sans';-inkscape-font-specification:LiberationSans-Bold;writing-mode:lr-tb;fill:#000000;fill-opacity:1;fill-rule:nonzero;stroke:none"
         id="text938"><tspan
           x="0 20.087999 34.68 49.271999 62.639999 71.928001 86.615997 93.288002 107.88 122.568 143.88 157.17599 171.864"
           y="0"
           sodipodi:role="line"
           id="tspan936">Modern humans</tspan></text>
    </g>
    <g
       id="g940"
       transform="matrix(0.35277777,0,0,-0.35277777,-79.099171,126.84212)">
      <text
         transform="matrix(1,0,0,-1,525.8,347)"
         style="font-variant:normal;font-weight:bold;font-size:24px;font-family:'Liberation Sans';-inkscape-font-specification:LiberationSans-Bold;writing-mode:lr-tb;fill:#000000;fill-opacity:1;fill-rule:nonzero;stroke:none"
         id="text944"><tspan
           x="0 17.304001 30.6 43.896 58.584 73.176003 86.472 95.856003 103.848 118.536 131.832 138.504"
           y="0"
           sodipodi:role="line"
           id="tspan942">Neanderthals</tspan></text>
    </g>
    <g
       id="g946"
       transform="matrix(0.35277777,0,0,-0.35277777,-79.099171,126.84212)">
      <text
         transform="matrix(1,0,0,-1,525.8,295.9)"
         style="font-variant:normal;font-weight:bold;font-size:24px;font-family:'Liberation Sans';-inkscape-font-specification:LiberationSans-Bold;writing-mode:lr-tb;fill:#000000;fill-opacity:1;fill-rule:nonzero;stroke:none"
         id="text950"><tspan
           x="0 17.304001 31.896 38.664001 59.976002 74.664001 87.959999 102.552 114.552 127.92"
           y="0"
           sodipodi:role="line"
           id="tspan948">Chimpanzee</tspan></text>
    </g>
    <g
       id="g952"
       transform="matrix(0.35277777,0,0,-0.35277777,-79.099171,126.84212)">
      <text
         transform="matrix(1,0,0,-1,525.8,247.7)"
         style="font-variant:normal;font-weight:bold;font-size:24px;font-family:'Liberation Sans';-inkscape-font-specification:LiberationSans-Bold;writing-mode:lr-tb;fill:#000000;fill-opacity:1;fill-rule:nonzero;stroke:none"
         id="text956"><tspan
           x="0 18.672001 33.360001 42.647999 49.416 56.088001 62.759998 76.056"
           y="0"
           sodipodi:role="line"
           id="tspan954">Gorillas</tspan></text>
    </g>
    <g
       id="g958"
       transform="matrix(0.35277777,0,0,-0.35277777,-79.099171,126.84212)">
      <text
         transform="matrix(1,0,0,-1,525.8,196.7)"
         style="font-variant:normal;font-weight:bold;font-size:24px;font-family:'Liberation Sans';-inkscape-font-specification:LiberationSans-Bold;writing-mode:lr-tb;fill:#000000;fill-opacity:1;fill-rule:nonzero;stroke:none"
         id="text962"><tspan
           x="0 18.672001 28.056 41.352001 56.040001 70.632004 85.223999 93.311996 106.608 121.2"
           y="0"
           sodipodi:role="line"
           id="tspan960">Orangutans</tspan></text>
    </g>
    <g
       id="g964"
       transform="matrix(0.35277777,0,0,-0.35277777,-79.099171,126.84212)">
      <path
         d="M 288,150.2 H 510.2"
         style="fill:none;stroke:#000000;stroke-width:5.9996;stroke-linecap:round;stroke-linejoin:round;stroke-miterlimit:10;stroke-dasharray:none;stroke-opacity:1"
         id="path966" />
    </g>
    <g
       id="g968"
       transform="matrix(0.35277777,0,0,-0.35277777,-79.099171,126.84212)">
      <path
         d="M 243.8,201.2 H 288"
         style="fill:none;stroke:#000000;stroke-width:5.9996;stroke-linecap:round;stroke-linejoin:round;stroke-miterlimit:10;stroke-dasharray:none;stroke-opacity:1"
         id="path970" />
    </g>
    <g
       id="g972"
       transform="matrix(0.35277777,0,0,-0.35277777,-79.099171,126.84212)">
      <path
         d="m 288,150.2 v 102"
         style="fill:none;stroke:#000000;stroke-width:5.9996;stroke-linecap:round;stroke-linejoin:round;stroke-miterlimit:10;stroke-dasharray:none;stroke-opacity:1"
         id="path974" />
    </g>
    <g
       id="g976"
       transform="matrix(0.35277777,0,0,-0.35277777,-79.099171,126.84212)">
      <path
         d="M 242.6,99.2 H 510.2"
         style="fill:none;stroke:#000000;stroke-width:5.9996;stroke-linecap:round;stroke-linejoin:round;stroke-miterlimit:10;stroke-dasharray:none;stroke-opacity:1"
         id="path978" />
    </g>
    <g
       id="g980"
       transform="matrix(0.35277777,0,0,-0.35277777,-79.099171,126.84212)">
      <path
         d="m 198.4,151.6 h 44.2"
         style="fill:none;stroke:#000000;stroke-width:5.9996;stroke-linecap:round;stroke-linejoin:round;stroke-miterlimit:10;stroke-dasharray:none;stroke-opacity:1"
         id="path982" />
    </g>
    <g
       id="g984"
       transform="matrix(0.35277777,0,0,-0.35277777,-79.099171,126.84212)">
      <path
         d="M 242.6,99.1 V 201.2"
         style="fill:none;stroke:#000000;stroke-width:5.9996;stroke-linecap:round;stroke-linejoin:round;stroke-miterlimit:10;stroke-dasharray:none;stroke-opacity:1"
         id="path986" />
    </g>
    <g
       id="g988"
       transform="matrix(0.35277777,0,0,-0.35277777,-79.099171,126.84212)">
      <path
         d="M 197.3,42.5 510.2,42.4"
         style="fill:none;stroke:#000000;stroke-width:5.9996;stroke-linecap:round;stroke-linejoin:round;stroke-miterlimit:10;stroke-dasharray:none;stroke-opacity:1"
         id="path990" />
    </g>
    <g
       id="g992"
       transform="matrix(0.35277777,0,0,-0.35277777,-79.099171,126.84212)">
      <path
         d="m 153.1,96.3 h 44.2"
         style="fill:none;stroke:#000000;stroke-width:5.9996;stroke-linecap:round;stroke-linejoin:round;stroke-miterlimit:10;stroke-dasharray:none;stroke-opacity:1"
         id="path994" />
    </g>
    <g
       id="g996"
       transform="matrix(0.35277777,0,0,-0.35277777,-79.099171,126.84212)">
      <path
         d="M 197.3,42.4 V 150.2"
         style="fill:none;stroke:#000000;stroke-width:5.9996;stroke-linecap:round;stroke-linejoin:round;stroke-miterlimit:10;stroke-dasharray:none;stroke-opacity:1"
         id="path998" />
    </g>
    <g
       id="g1000"
       transform="matrix(0.35277777,0,0,-0.35277777,-79.099171,126.84212)">
      <text
         transform="matrix(1,0,0,-1,525.8,142.8)"
         style="font-variant:normal;font-weight:bold;font-size:24px;font-family:'Liberation Sans';-inkscape-font-specification:LiberationSans-Bold;writing-mode:lr-tb;fill:#000000;fill-opacity:1;fill-rule:nonzero;stroke:none"
         id="text1004"><tspan
           x="0 18.672001 25.440001 40.032001 54.624001 69.311996 83.903999"
           y="0"
           sodipodi:role="line"
           id="tspan1002">Gibbons</tspan></text>
    </g>
    <g
       id="g1006"
       transform="matrix(0.35277777,0,0,-0.35277777,-79.099171,126.84212)">
      <text
         transform="matrix(1,0,0,-1,525.8,88.9)"
         style="font-variant:normal;font-weight:bold;font-size:24px;font-family:'Liberation Sans';-inkscape-font-specification:LiberationSans-Bold;writing-mode:lr-tb;fill:#000000;fill-opacity:1;fill-rule:nonzero;stroke:none"
         id="text1010"><tspan
           x="0 18.672001 25.440001 40.032001 46.703999 68.903999 83.592003 92.879997 99.552002 114.24 120.912 142.29601 156.888 171.48 184.84801 198.144 211.44"
           y="0"
           sodipodi:role="line"
           id="tspan1008">Old World monkeys</tspan></text>
    </g>
    <g
       id="g1012"
       transform="matrix(0.35277777,0,0,-0.35277777,-79.099171,126.84212)">
      <text
         transform="matrix(1,0,0,-1,525.8,35)"
         style="font-variant:normal;font-weight:bold;font-size:24px;font-family:'Liberation Sans';-inkscape-font-specification:LiberationSans-Bold;writing-mode:lr-tb;fill:#000000;fill-opacity:1;fill-rule:nonzero;stroke:none"
         id="text1016"><tspan
           x="0 17.304001 30.6 49.271999 56.040001 78.239998 92.832001 102.216 108.888 123.48 130.15199 151.536 166.12801 180.81599 194.112 207.408 220.776"
           y="0"
           sodipodi:role="line"
           id="tspan1014">New World monkeys</tspan></text>
    </g>
    <g
       id="g1018"
       transform="matrix(0.35277777,0,0,-0.35277777,-79.099171,126.84212)">
      <text
         transform="matrix(1,0,0,-1,225.4,440.7)"
         style="font-variant:normal;font-weight:normal;font-size:20px;font-family:'Liberation Sans';-inkscape-font-specification:LiberationSans;writing-mode:lr-tb;fill:#000000;fill-opacity:1;fill-rule:nonzero;stroke:none"
         id="text1022"><tspan
           x="0 14.48 25.58 42.259998 46.740002 57.84 62.240002 73.419998 78.919998 90.099998 101.2 111.28 122.46 132.53999 138.03999 149.22"
           y="0"
           sodipodi:role="line"
           id="tspan1020">Hominin ancestor</tspan></text>
    </g>
    <g
       id="g1024"
       transform="matrix(0.35277777,0,0,-0.35277777,-79.099171,126.84212)">
      <text
         transform="matrix(1,0,0,-1,131.8,389.7)"
         style="font-variant:normal;font-weight:normal;font-size:20px;font-family:'Liberation Sans';-inkscape-font-specification:LiberationSans;writing-mode:lr-tb;fill:#000000;fill-opacity:1;fill-rule:nonzero;stroke:none"
         id="text1028"><tspan
           x="0 13.3 18.879999 25.559999 29.959999 40.040001 51.220001 62.32 67.82 79 90.099998 101.28 106.78 117.96 129.06 139.14 150.32001 160.39999 165.89999 177.08"
           y="0"
           sodipodi:role="line"
           id="tspan1026">African ape ancestor</tspan></text>
    </g>
    <g
       id="g1030"
       transform="matrix(0.35277777,0,0,-0.35277777,-79.099171,126.84212)">
      <text
         transform="matrix(1,0,0,-1,63.8,338.7)"
         style="font-variant:normal;font-weight:normal;font-size:20px;font-family:'Liberation Sans';-inkscape-font-specification:LiberationSans;writing-mode:lr-tb;fill:#000000;fill-opacity:1;fill-rule:nonzero;stroke:none"
         id="text1034"><tspan
           x="0 15.58 22.26 33.439999 44.540001 50.119999 55.619999 66.720001 77.900002 89 94.580002 105.68 116.86 126.94 138.03999 148.12 153.62 164.8"
           y="0"
           sodipodi:role="line"
           id="tspan1032">Great ape ancestor</tspan></text>
    </g>
    <g
       id="g1036"
       transform="matrix(0.35277777,0,0,-0.35277777,-79.099171,126.84212)">
      <text
         transform="matrix(1,0,0,-1,35.4,287.6)"
         style="font-variant:normal;font-weight:normal;font-size:20px;font-family:'Liberation Sans';-inkscape-font-specification:LiberationSans;writing-mode:lr-tb;fill:#000000;fill-opacity:1;fill-rule:nonzero;stroke:none"
         id="text1040"><tspan
           x="0 13.38 24.48 35.66 41.16 52.34 63.439999 73.519997 84.699997 94.699997 100.28 111.38"
           y="0"
           sodipodi:role="line"
           id="tspan1038">Ape ancestor</tspan></text>
    </g>
    <g
       id="g1042"
       transform="matrix(0.35277777,0,0,-0.35277777,-79.099171,126.84212)">
      <text
         transform="matrix(1,0,0,-1,13.2,168.8)"
         style="font-variant:normal;font-weight:normal;font-size:20px;font-family:'Liberation Sans';-inkscape-font-specification:LiberationSans;writing-mode:lr-tb;fill:#000000;fill-opacity:1;fill-rule:nonzero;stroke:none"
         id="text1046"><tspan
           x="0 13.38 17.780001 34.459999 38.860001 50.040001 61.139999 66.720001 77.82 89 99.080002 110.18 120.26 125.76 136.94"
           y="0"
           sodipodi:role="line"
           id="tspan1044">Simian ancestor</tspan></text>
    </g>
    <path
       d="m 56.896659,-27.145377 18.520833,13.476111"
       style="fill:none;stroke:#000000;stroke-width:0.529167;stroke-linecap:butt;stroke-linejoin:miter;stroke-miterlimit:10;stroke-dasharray:none;stroke-opacity:1"
       id="path1048" />
    <path
       d="m 78.909992,-11.129266 -2.751666,-3.845278 -1.763889,2.398889 z"
       style="fill:#000000;fill-opacity:1;fill-rule:evenodd;stroke:none;stroke-width:0.352778"
       id="path1050" />
    <path
       d="M 30.896938,-9.1184326 48.288882,13.459345"
       style="fill:none;stroke:#000000;stroke-width:0.529167;stroke-linecap:butt;stroke-linejoin:miter;stroke-miterlimit:10;stroke-dasharray:none;stroke-opacity:1"
       id="path1052" />
    <path
       d="m 50.899437,16.881289 -1.552222,-4.480278 -2.363611,1.834445 z"
       style="fill:#000000;fill-opacity:1;fill-rule:evenodd;stroke:none;stroke-width:0.352778"
       id="path1054" />
    <path
       d="M 0.91082724,8.8732337 31.390827,30.392678"
       style="fill:none;stroke:#000000;stroke-width:0.529167;stroke-linecap:butt;stroke-linejoin:miter;stroke-miterlimit:10;stroke-dasharray:none;stroke-opacity:1"
       id="path1056" />
    <path
       d="m 34.883326,32.862122 -2.786944,-3.81 -1.728611,2.434167 z"
       style="fill:#000000;fill-opacity:1;fill-rule:evenodd;stroke:none;stroke-width:0.352778"
       id="path1058" />
    <path
       d="m -23.113339,22.878511 40.46361,27.587222"
       style="fill:none;stroke:#000000;stroke-width:0.529167;stroke-linecap:butt;stroke-linejoin:miter;stroke-miterlimit:10;stroke-dasharray:none;stroke-opacity:1"
       id="path1060" />
    <path
       d="m 20.913327,52.864622 -2.892778,-3.774723 -1.693333,2.469445 z"
       style="fill:#000000;fill-opacity:1;fill-rule:evenodd;stroke:none;stroke-width:0.352778"
       id="path1062" />
    <path
       d="m -25.088894,68.880732 9.913055,18.203333"
       style="fill:none;stroke:#000000;stroke-width:0.529167;stroke-linecap:butt;stroke-linejoin:miter;stroke-miterlimit:10;stroke-dasharray:none;stroke-opacity:1"
       id="path1064" />
    <path
       d="m -13.09445,90.858787 -0.846667,-4.656666 -2.610555,1.446389 z"
       style="fill:#000000;fill-opacity:1;fill-rule:evenodd;stroke:none;stroke-width:0.352778"
       id="path1066" />
  </g>
</svg>
